<svg width="6" height="31" viewBox="0 0 6 31" fill="none" xmlns="http://www.w3.org/2000/svg">
<path d="M3.07502 4.93824C2.40835 4.93824 1.83502 4.7249 1.35502 4.29824C0.901686 3.8449 0.67502 3.25824 0.67502 2.53824C0.67502 1.81824 0.901686 1.2449 1.35502 0.818237C1.83502 0.364903 2.40835 0.138237 3.07502 0.138237C3.76835 0.138237 4.34169 0.364903 4.79502 0.818237C5.24835 1.2449 5.47502 1.81824 5.47502 2.53824C5.47502 3.25824 5.24835 3.8449 4.79502 4.29824C4.34169 4.7249 3.76835 4.93824 3.07502 4.93824ZM1.23502 30.5382V15.6582C1.23502 15.1249 1.22169 14.4316 1.19502 13.5782C1.19502 12.7249 1.16835 11.8849 1.11502 11.0582C1.08835 10.2316 1.02169 9.57824 0.91502 9.09824L0.99502 8.77824H4.91502V30.5382H1.23502Z" fill="#171717"/>
</svg>
