<svg width="65" height="64" viewBox="0 0 65 64" fill="none" xmlns="http://www.w3.org/2000/svg">
<rect x="1.9624" y="0.996826" width="62" height="62" rx="31" stroke="white" stroke-width="2"/>
<path d="M32.9651 5.33015C18.2317 5.33015 6.29834 17.2635 6.29834 31.9968C6.29834 43.7968 13.9317 53.7635 24.5317 57.2968C25.865 57.5302 26.365 56.7302 26.365 56.0302C26.365 55.3968 26.3317 53.2968 26.3317 51.0635C19.6317 52.2968 17.8983 49.4302 17.365 47.9302C17.065 47.1635 15.765 44.7968 14.6317 44.1635C13.6983 43.6635 12.365 42.4302 14.5983 42.3968C16.6983 42.3635 18.1983 44.3302 18.6983 45.1302C21.0983 49.1635 24.9317 48.0302 26.465 47.3302C26.6983 45.5968 27.3983 44.4302 28.1651 43.7635C22.2317 43.0968 16.0317 40.7968 16.0317 30.5968C16.0317 27.6968 17.065 25.2968 18.765 23.4302C18.4983 22.7635 17.565 20.0302 19.0317 16.3635C19.0317 16.3635 21.265 15.6635 26.365 19.0968C28.4984 18.4968 30.7651 18.1968 33.0317 18.1968C35.2984 18.1968 37.5651 18.4968 39.6984 19.0968C44.7984 15.6302 47.0317 16.3635 47.0317 16.3635C48.4984 20.0302 47.5651 22.7635 47.2984 23.4302C48.9984 25.2968 50.0317 27.6635 50.0317 30.5968C50.0317 40.8302 43.7984 43.0968 37.8651 43.7635C38.8317 44.5968 39.6651 46.1968 39.6651 48.6968C39.6651 52.2635 39.6317 55.1302 39.6317 56.0302C39.6317 56.7302 40.1317 57.5635 41.4651 57.2968C52.3197 53.6323 59.6288 43.4536 59.6317 31.9968C59.6317 17.2635 47.6984 5.33015 32.9651 5.33015Z" fill="white"/>
</svg>
