<svg width="68" height="67" viewBox="0 0 68 67" fill="none" xmlns="http://www.w3.org/2000/svg">
    <rect x="1.9624" y="0.996826" width="65" height="65" rx="32.5" stroke="white" stroke-width="2" />
    <path
        d="M34.5922 28.4374C36.5336 26.4543 39.0612 25.1561 42.0014 25.1561C48.4316 25.1561 53.6446 30.3688 53.6446 36.7992V52.6763H49.4107V36.7992C49.4107 32.7072 46.0935 29.39 42.0014 29.39C37.9094 29.39 34.5922 32.7072 34.5922 36.7992V52.6763H30.3583V26.2146H34.5922V28.4374ZM19.7736 21.9807C18.0198 21.9807 16.5981 20.559 16.5981 18.8053C16.5981 17.0515 18.0198 15.6299 19.7736 15.6299C21.5273 15.6299 22.949 17.0515 22.949 18.8053C22.949 20.559 21.5273 21.9807 19.7736 21.9807ZM17.6566 26.2146H21.8905V52.6763H17.6566V26.2146Z"
        fill="white" />
</svg>