<svg width="64" height="65" viewBox="0 0 64 65" fill="none" xmlns="http://www.w3.org/2000/svg">
    <circle cx="31.972" cy="32.4019" r="31.9716" fill="white" />
    <path
        d="M21.2061 46.1175C22.0061 46.1175 22.6061 45.9175 23.0061 45.5175C23.4061 45.0908 23.6061 44.4375 23.6061 43.5575V36.9975C23.6061 35.5575 23.9527 34.4508 24.6461 33.6775C25.3661 32.9042 26.2461 32.4242 27.2861 32.2375V32.1575C26.2461 31.9442 25.3661 31.4642 24.6461 30.7175C23.9527 29.9442 23.6061 28.8375 23.6061 27.3975V20.8375C23.6061 19.9575 23.4061 19.3175 23.0061 18.9175C22.6061 18.4908 22.0061 18.2775 21.2061 18.2775H18.1661V15.2375H21.0461C22.3794 15.2375 23.4861 15.4775 24.3661 15.9575C25.2461 16.4375 25.8994 17.1175 26.3261 17.9975C26.7527 18.8775 26.9661 19.9308 26.9661 21.1575V27.5575C26.9661 28.3575 27.1794 29.0375 27.6061 29.5975C28.0327 30.1575 28.7261 30.4375 29.6861 30.4375H31.6061V33.9575H29.6861C28.7261 33.9575 28.0327 34.2375 27.6061 34.7975C27.1794 35.3575 26.9661 36.0375 26.9661 36.8375V43.2375C26.9661 44.4642 26.7527 45.5175 26.3261 46.3975C25.8994 47.2775 25.2461 47.9575 24.3661 48.4375C23.4861 48.9175 22.3794 49.1575 21.0461 49.1575H18.1661V46.1175H21.2061ZM37.2089 36.8375C37.2089 36.0375 36.9955 35.3575 36.5689 34.7975C36.1422 34.2375 35.4489 33.9575 34.4889 33.9575H32.5689V30.4375H34.4889C35.4489 30.4375 36.1422 30.1575 36.5689 29.5975C36.9955 29.0375 37.2089 28.3575 37.2089 27.5575V21.1575C37.2089 19.9308 37.4222 18.8775 37.8489 17.9975C38.2755 17.1175 38.9289 16.4375 39.8089 15.9575C40.6889 15.4775 41.7955 15.2375 43.1289 15.2375H46.0089V18.2775H42.9689C42.1689 18.2775 41.5689 18.4908 41.1689 18.9175C40.7689 19.3175 40.5689 19.9575 40.5689 20.8375V27.3975C40.5689 28.8375 40.2089 29.9442 39.4889 30.7175C38.7955 31.4642 37.9289 31.9442 36.8889 32.1575V32.2375C37.9289 32.4242 38.7955 32.9042 39.4889 33.6775C40.2089 34.4508 40.5689 35.5575 40.5689 36.9975V43.5575C40.5689 44.4375 40.7689 45.0908 41.1689 45.5175C41.5689 45.9175 42.1689 46.1175 42.9689 46.1175H46.0089V49.1575H43.1289C41.7955 49.1575 40.6889 48.9175 39.8089 48.4375C38.9289 47.9575 38.2755 47.2775 37.8489 46.3975C37.4222 45.5175 37.2089 44.4642 37.2089 43.2375V36.8375Z"
        fill="black" />
</svg>