<svg width="41" height="41" viewBox="0 0 41 41" fill="none" xmlns="http://www.w3.org/2000/svg">
    <path
        d="M35.9717 13.0981L32.2217 10.9098M35.9717 13.0981V16.8481M35.9717 13.0981L32.2217 15.2865M5.97168 13.0981L9.72168 10.9098M5.97168 13.0981L9.72168 15.2865M5.97168 13.0981V16.8481M20.9717 21.8481L24.7217 19.6598M20.9717 21.8481L17.2217 19.6598M20.9717 21.8481V25.5981M20.9717 36.8481L24.7217 34.6598M20.9717 36.8481V33.0981M20.9717 36.8481L17.2217 34.6598M17.2217 6.53481L20.9717 4.34814L24.7217 6.53648M35.9717 24.3481V28.0981L32.2217 30.2865M9.72168 30.2865L5.97168 28.0981V24.3481"
        stroke="black" stroke-width="1.5" stroke-linecap="round" stroke-linejoin="round" />
</svg>