<svg width="28" height="35" viewBox="0 0 28 35" fill="none" xmlns="http://www.w3.org/2000/svg">
    <path
        d="M3.20605 31.1175C4.00605 31.1175 4.60606 30.9175 5.00606 30.5175C5.40606 30.0908 5.60606 29.4375 5.60606 28.5575V21.9975C5.60606 20.5575 5.95272 19.4508 6.64605 18.6775C7.36606 17.9042 8.24606 17.4242 9.28605 17.2375V17.1575C8.24606 16.9442 7.36606 16.4642 6.64605 15.7175C5.95272 14.9442 5.60606 13.8375 5.60606 12.3975V5.8375C5.60606 4.9575 5.40606 4.31749 5.00606 3.9175C4.60606 3.49083 4.00605 3.2775 3.20605 3.2775H0.166055V0.237495H3.04605C4.37939 0.237495 5.48606 0.477495 6.36605 0.957495C7.24606 1.4375 7.89939 2.1175 8.32606 2.9975C8.75272 3.87749 8.96606 4.93083 8.96606 6.1575V12.5575C8.96606 13.3575 9.17939 14.0375 9.60606 14.5975C10.0327 15.1575 10.7261 15.4375 11.6861 15.4375H13.6061V18.9575H11.6861C10.7261 18.9575 10.0327 19.2375 9.60606 19.7975C9.17939 20.3575 8.96606 21.0375 8.96606 21.8375V28.2375C8.96606 29.4642 8.75272 30.5175 8.32606 31.3975C7.89939 32.2775 7.24606 32.9575 6.36605 33.4375C5.48606 33.9175 4.37939 34.1575 3.04605 34.1575H0.166055V31.1175H3.20605ZM19.2089 21.8375C19.2089 21.0375 18.9955 20.3575 18.5689 19.7975C18.1422 19.2375 17.4489 18.9575 16.4889 18.9575H14.5689V15.4375H16.4889C17.4489 15.4375 18.1422 15.1575 18.5689 14.5975C18.9955 14.0375 19.2089 13.3575 19.2089 12.5575V6.1575C19.2089 4.93083 19.4222 3.87749 19.8489 2.9975C20.2755 2.1175 20.9289 1.4375 21.8089 0.957495C22.6889 0.477495 23.7955 0.237495 25.1289 0.237495H28.0089V3.2775H24.9689C24.1689 3.2775 23.5689 3.49083 23.1689 3.9175C22.7689 4.31749 22.5689 4.9575 22.5689 5.8375V12.3975C22.5689 13.8375 22.2089 14.9442 21.4889 15.7175C20.7955 16.4642 19.9289 16.9442 18.8889 17.1575V17.2375C19.9289 17.4242 20.7955 17.9042 21.4889 18.6775C22.2089 19.4508 22.5689 20.5575 22.5689 21.9975V28.5575C22.5689 29.4375 22.7689 30.0908 23.1689 30.5175C23.5689 30.9175 24.1689 31.1175 24.9689 31.1175H28.0089V34.1575H25.1289C23.7955 34.1575 22.6889 33.9175 21.8089 33.4375C20.9289 32.9575 20.2755 32.2775 19.8489 31.3975C19.4222 30.5175 19.2089 29.4642 19.2089 28.2375V21.8375Z"
        fill="black" />
</svg>